<svg width="40" height="40" viewBox="0 0 40 40" fill="none" xmlns="http://www.w3.org/2000/svg">
<path fill-rule="evenodd" clip-rule="evenodd" d="M36.1854 17.0648C37.0778 16.2199 36.6617 14.7185 35.4911 14.4386L31.4123 13.3975L32.5622 9.36011C32.8871 8.19879 31.792 7.10341 30.6311 7.42841L26.595 8.5786L25.5544 4.49846C25.279 3.34619 23.7608 2.92477 22.9291 3.80393L20 6.82099L17.0711 3.804C16.2488 2.93479 14.7243 3.33304 14.4457 4.49853L13.4051 8.57867L9.36898 7.42847C8.20772 7.10334 7.11306 8.19911 7.43793 9.36018L8.58773 13.3976L4.50896 14.4386C3.33786 14.7186 2.92256 16.2203 3.81462 17.0648L6.80844 19.9948L3.81462 22.9247C2.92217 23.7696 3.33832 25.271 4.50889 25.551L8.58767 26.592L7.43786 30.6294C7.11293 31.7908 8.20798 32.8861 9.36892 32.5611L13.405 31.4109L14.4456 35.4911C14.7346 36.7004 16.2487 37.0547 17.0709 36.1856L20 33.1908L22.929 36.1856C23.7428 37.0637 25.2719 36.673 25.5543 35.4911L26.595 31.4109L30.631 32.5611C31.7922 32.8863 32.887 31.7905 32.5621 30.6294L31.4123 26.592L35.4911 25.551C36.6621 25.2709 37.0774 23.7693 36.1853 22.9247L33.1916 19.9948L36.1854 17.0648Z" fill="black"/>
</svg>
