<svg width="35" height="35" viewBox="0 0 35 35" fill="none" xmlns="http://www.w3.org/2000/svg">
<path fill-rule="evenodd" clip-rule="evenodd" d="M17.5 31.6275C9.69562 31.6275 3.37238 25.3043 3.37238 17.4999C3.37238 9.69556 9.69562 3.37231 17.5 3.37231C25.3043 3.37231 31.6276 9.69556 31.6276 17.4999C31.6276 25.3043 25.3043 31.6275 17.5 31.6275ZM24.1081 14.9934H17.5V10.9545C17.5 10.345 16.7594 10.0374 16.3322 10.4703L9.82094 17.0157C9.5532 17.2834 9.5532 17.7107 9.82094 17.9784L16.3322 24.5238C16.7651 24.9568 17.5 24.6492 17.5 24.0396V20.0064H24.1081C24.484 20.0064 24.7916 19.6988 24.7916 19.3228V15.677C24.7916 15.301 24.484 14.9934 24.1081 14.9934Z" fill="#0066CC"/>
</svg>
