<svg width="40" height="40" viewBox="0 0 40 40" fill="none" xmlns="http://www.w3.org/2000/svg">
<path fill-rule="evenodd" clip-rule="evenodd" d="M32.8776 10.1693L26.5039 3.78906C26.211 3.4961 25.8138 3.33334 25.3972 3.33334H25V11.6667H33.3334V11.2695C33.3334 10.8594 33.1706 10.4622 32.8776 10.1693ZM22.9167 12.1875V3.33334H9.89587C9.02999 3.33334 8.33337 4.02995 8.33337 4.89584V35.1042C8.33337 35.9701 9.02999 36.6667 9.89587 36.6667H31.7709C32.6368 36.6667 33.3334 35.9701 33.3334 35.1042V13.75H24.4792C23.6198 13.75 22.9167 13.0469 22.9167 12.1875ZM12.5 8.02084C12.5 7.73308 12.7331 7.5 13.0209 7.5H18.2292C18.517 7.5 18.75 7.73308 18.75 8.02084V9.0625C18.75 9.35026 18.517 9.58334 18.2292 9.58334H13.0209C12.7331 9.58334 12.5 9.35026 12.5 9.0625V8.02084ZM12.5 13.2292V12.1875C12.5 11.8997 12.7331 11.6667 13.0209 11.6667H18.2292C18.517 11.6667 18.75 11.8997 18.75 12.1875V13.2292C18.75 13.5169 18.517 13.75 18.2292 13.75H13.0209C12.7331 13.75 12.5 13.5169 12.5 13.2292ZM21.875 30.4089V31.9792C21.875 32.2669 21.642 32.5 21.3542 32.5H20.3125C20.0248 32.5 19.7917 32.2669 19.7917 31.9792V30.3978C19.0567 30.36 18.3418 30.1035 17.7494 29.6589C17.4955 29.4681 17.4825 29.0879 17.7123 28.8685L18.4773 28.1387C18.6576 27.9668 18.9258 27.959 19.1368 28.0911C19.3887 28.2487 19.6745 28.3333 19.9714 28.3333H21.8015C22.2247 28.3333 22.5697 27.9479 22.5697 27.4746C22.5697 27.0872 22.3347 26.7461 21.9987 26.6458L19.0691 25.7669C17.8588 25.4036 17.0131 24.2422 17.0131 22.9421C17.0131 21.3457 18.2533 20.0488 19.7911 20.0078V18.4375C19.7911 18.1497 20.0241 17.9167 20.3119 17.9167H21.3536C21.6413 17.9167 21.8744 18.1497 21.8744 18.4375V20.0189C22.6094 20.0566 23.3243 20.3125 23.9167 20.7578C24.1706 20.9486 24.1836 21.3288 23.9538 21.5482L23.1888 22.278C23.0085 22.4499 22.7403 22.4577 22.5293 22.3255C22.2774 22.1673 21.9916 22.0833 21.6947 22.0833H19.8646C19.4414 22.0833 19.0964 22.4688 19.0964 22.9421C19.0964 23.3294 19.3314 23.6706 19.6674 23.7708L22.597 24.6497C23.8073 25.013 24.653 26.1745 24.653 27.4746C24.653 29.0716 23.4128 30.3678 21.875 30.4089Z" fill="black"/>
</svg>
