<svg width="40" height="40" viewBox="0 0 40 40" fill="none" xmlns="http://www.w3.org/2000/svg">
<path d="M14.1667 26.1458C14.0422 26.1458 13.9177 26.1652 13.799 26.2062C13.124 26.4391 12.4141 26.5885 11.6667 26.5885C10.9193 26.5885 10.2094 26.4391 9.5339 26.2062C9.41515 26.1652 9.2912 26.1458 9.16672 26.1458C5.93443 26.1458 3.31621 28.9393 3.3334 32.3781C3.34069 33.8312 4.46517 35 5.83339 35H17.5C18.8683 35 19.9927 33.8312 20 32.3781C20.0172 28.9393 17.399 26.1458 14.1667 26.1458ZM11.6667 24.375C14.4282 24.375 16.6667 21.9965 16.6667 19.0625C16.6667 16.1285 14.4282 13.75 11.6667 13.75C8.90526 13.75 6.66672 16.1285 6.66672 19.0625C6.66672 21.9965 8.90526 24.375 11.6667 24.375ZM34.1667 6.66667H14.1667C12.7881 6.66667 11.6667 7.89795 11.6667 9.41091V11.9792C12.8865 11.9792 14.0157 12.3544 15 12.9642V10.2083H33.3333V26.1458H30V22.6042H23.3333V26.1458H19.3625C20.3573 27.0694 21.0875 28.2891 21.4297 29.6875H34.1667C35.5453 29.6875 36.6666 28.4562 36.6666 26.9433V9.41091C36.6666 7.89795 35.5453 6.66667 34.1667 6.66667Z" fill="black"/>
</svg>
