<svg width="40" height="40" viewBox="0 0 40 40" fill="none" xmlns="http://www.w3.org/2000/svg">
<path d="M8.88887 12.5C9.62139 12.5 10.3375 12.2801 10.9465 11.868C11.5556 11.456 12.0303 10.8703 12.3106 10.1851C12.591 9.49984 12.6643 8.74584 12.5214 8.01841C12.3785 7.29098 12.0258 6.6228 11.5078 6.09835C10.9898 5.5739 10.3299 5.21675 9.61143 5.07206C8.89298 4.92736 8.14829 5.00162 7.47152 5.28545C6.79476 5.56928 6.21632 6.04993 5.80935 6.66661C5.40238 7.2833 5.18516 8.00832 5.18516 8.75C5.18516 9.74456 5.57538 10.6984 6.26995 11.4017C6.96453 12.1049 7.90659 12.5 8.88887 12.5ZM8.88887 22.8172C8.88804 22.4668 8.95759 22.1199 9.09329 21.7976C9.22898 21.4753 9.42799 21.1842 9.67822 20.9422L13.8524 16.9531C13.9479 16.8623 14.0706 16.8178 14.1771 16.7439C13.9047 16.0459 13.4315 15.4468 12.8187 15.0244C12.206 14.6019 11.482 14.3757 10.7407 14.375H7.03702C6.05473 14.375 5.11268 14.7701 4.4181 15.4734C3.72352 16.1766 3.33331 17.1304 3.33331 18.125L3.33331 23.75C3.33331 24.2473 3.52842 24.7242 3.87571 25.0758C4.223 25.4275 4.69402 25.625 5.18516 25.625V33.125C5.18516 33.6223 5.38027 34.0992 5.72756 34.4508C6.07485 34.8025 6.54588 35 7.03702 35H10.7407C11.2319 35 11.7029 34.8025 12.0502 34.4508C12.3975 34.0992 12.5926 33.6223 12.5926 33.125V27.4771L9.67822 24.6922C9.42791 24.4502 9.22885 24.1592 9.09315 23.8369C8.95745 23.5145 8.88794 23.1676 8.88887 22.8172ZM31.1111 12.5C31.8436 12.5 32.5597 12.2801 33.1688 11.868C33.7778 11.456 34.2525 10.8703 34.5329 10.1851C34.8132 9.49984 34.8865 8.74584 34.7436 8.01841C34.6007 7.29098 34.248 6.6228 33.73 6.09835C33.212 5.5739 32.5521 5.21675 31.8336 5.07206C31.1152 4.92736 30.3705 5.00162 29.6937 5.28545C29.017 5.56928 28.4385 6.04993 28.0316 6.66661C27.6246 7.2833 27.4074 8.00832 27.4074 8.75C27.4074 9.74456 27.7976 10.6984 28.4922 11.4017C29.1868 12.1049 30.1288 12.5 31.1111 12.5ZM32.9629 14.375H29.2592C28.518 14.3757 27.7941 14.6018 27.1813 15.0241C26.5686 15.4464 26.0953 16.0454 25.8229 16.7434C25.9294 16.8178 26.0544 16.8605 26.1481 16.9537L30.3217 20.9416C30.5712 21.1842 30.7697 21.4754 30.9053 21.7976C31.0409 22.1198 31.1108 22.4664 31.1108 22.8166C31.1108 23.1668 31.0409 23.5134 30.9053 23.8356C30.7697 24.1579 30.5712 24.449 30.3217 24.6916L27.4074 27.4777V33.125C27.4074 33.6223 27.6025 34.0992 27.9498 34.4508C28.2971 34.8025 28.7681 35 29.2592 35H32.9629C33.4541 35 33.9251 34.8025 34.2724 34.4508C34.6197 34.0992 34.8148 33.6223 34.8148 33.125V25.625C35.3059 25.625 35.777 25.4275 36.1243 25.0758C36.4715 24.7242 36.6666 24.2473 36.6666 23.75V18.125C36.6666 17.1304 36.2764 16.1766 35.5819 15.4734C34.8873 14.7701 33.9452 14.375 32.9629 14.375ZM29.0509 22.3051L24.8773 18.3172C24.7788 18.2221 24.6548 18.1584 24.5209 18.1341C24.3869 18.1097 24.2488 18.1257 24.1238 18.1802C23.9988 18.2346 23.8923 18.325 23.8176 18.4402C23.7429 18.5554 23.7033 18.6903 23.7037 18.8281V20.9375H16.2963V18.8281C16.2968 18.6903 16.2572 18.5553 16.1826 18.44C16.108 18.3247 16.0015 18.2342 15.8764 18.1797C15.7514 18.1252 15.6132 18.1091 15.4792 18.1334C15.3452 18.1578 15.2212 18.2215 15.1227 18.3166L10.9491 22.3051C10.8156 22.4412 10.7408 22.6252 10.7408 22.8169C10.7408 23.0086 10.8156 23.1926 10.9491 23.3287L15.1227 27.3172C15.2212 27.4123 15.3453 27.476 15.4794 27.5004C15.6134 27.5247 15.7516 27.5086 15.8767 27.454C16.0018 27.3994 16.1082 27.3088 16.1828 27.1934C16.2574 27.078 16.2969 26.943 16.2963 26.8051V24.6875H23.7037V26.8051C23.7031 26.943 23.7425 27.078 23.8171 27.1934C23.8917 27.3088 23.9982 27.3994 24.1233 27.454C24.2484 27.5086 24.3865 27.5247 24.5206 27.5004C24.6547 27.476 24.7787 27.4123 24.8773 27.3172L29.0509 23.3287C29.1843 23.1926 29.2592 23.0086 29.2592 22.8169C29.2592 22.6252 29.1843 22.4412 29.0509 22.3051Z" fill="black"/>
</svg>
