<svg width="50" height="40" viewBox="0 0 50 40" fill="none" xmlns="http://www.w3.org/2000/svg">
<path fill-rule="evenodd" clip-rule="evenodd" d="M11.5404 6.04499C11.5404 4.09387 13.1221 2.51221 15.0732 2.51221C17.0243 2.51221 18.606 4.09387 18.606 6.04499C18.606 7.99607 17.0243 9.57778 15.0732 9.57778C13.1221 9.57778 11.5404 7.99607 11.5404 6.04499ZM24.0341 6.11236C23.4209 5.49918 22.4268 5.49918 21.8136 6.11236L17.5631 10.3628H12.5833L8.33281 6.11236C7.71967 5.49918 6.72549 5.49918 6.11235 6.11236C5.49917 6.72555 5.49917 7.71968 6.11235 8.33287L10.7554 12.9758V26.0641C10.7554 26.9313 11.4583 27.6342 12.3255 27.6342H13.1106C13.9777 27.6342 14.6807 26.9313 14.6807 26.0641V20.5687H15.4658V26.0641C15.4658 26.9313 16.1687 27.6342 17.0359 27.6342H17.8209C18.6881 27.6342 19.3911 26.9313 19.3911 26.0641V12.9758L24.0341 8.33282C24.6473 7.71963 24.6473 6.72555 24.0341 6.11236Z" fill="black"/>
<path fill-rule="evenodd" clip-rule="evenodd" d="M30.834 6.04499C30.834 4.09387 32.4157 2.51221 34.3668 2.51221C36.3179 2.51221 37.8996 4.09387 37.8996 6.04499C37.8996 7.99607 36.3179 9.57778 34.3668 9.57778C32.4157 9.57778 30.834 7.99607 30.834 6.04499ZM43.3277 6.11236C42.7145 5.49918 41.7203 5.49918 41.1072 6.11236L36.8567 10.3628H31.8769L27.6264 6.11236C27.0133 5.49918 26.0191 5.49918 25.4059 6.11236C24.7927 6.72555 24.7927 7.71968 25.4059 8.33287L30.0489 12.9758V26.0641C30.0489 26.9313 30.7519 27.6342 31.6191 27.6342H32.4041C33.2713 27.6342 33.9743 26.9313 33.9743 26.0641V20.5687H34.7593V26.0641C34.7593 26.9313 35.4623 27.6342 36.3295 27.6342H37.1145C37.9817 27.6342 38.6846 26.9313 38.6846 26.0641V12.9758L43.3277 8.33282C43.9408 7.71963 43.9408 6.72555 43.3277 6.11236Z" fill="black"/>
<path fill-rule="evenodd" clip-rule="evenodd" d="M21.1873 15.8986C21.1873 13.9475 22.769 12.3658 24.7201 12.3658C26.6713 12.3658 28.2529 13.9475 28.2529 15.8986C28.2529 17.8497 26.6713 19.4314 24.7201 19.4314C22.769 19.4314 21.1873 17.8497 21.1873 15.8986ZM33.681 15.966C33.0679 15.3528 32.0737 15.3528 31.4605 15.966L27.21 20.2165H22.2302L17.9797 15.966C17.3666 15.3528 16.3724 15.3528 15.7593 15.966C15.1461 16.5792 15.1461 17.5733 15.7593 18.1865L20.4023 22.8295V35.9178C20.4023 36.7849 21.1053 37.4879 21.9724 37.4879H22.7575C23.6246 37.4879 24.3276 36.7849 24.3276 35.9178V30.4223H25.1127V35.9178C25.1127 36.7849 25.8156 37.4879 26.6828 37.4879H27.4679C28.335 37.4879 29.038 36.7849 29.038 35.9178V22.8295L33.681 18.1865C34.2942 17.5733 34.2942 16.5792 33.681 15.966Z" fill="black"/>
<path d="M33.681 15.966L33.4335 16.2135L33.4335 16.2135L33.681 15.966ZM31.4605 15.966L31.708 16.2135L31.708 16.2135L31.4605 15.966ZM27.21 20.2165V20.5665H27.355L27.4575 20.464L27.21 20.2165ZM22.2302 20.2165L21.9827 20.464L22.0852 20.5665H22.2302V20.2165ZM17.9797 15.966L17.7322 16.2135L17.7322 16.2135L17.9797 15.966ZM15.7593 15.966L16.0068 16.2135L16.0068 16.2135L15.7593 15.966ZM15.7593 18.1865L15.5118 18.434L15.5118 18.434L15.7593 18.1865ZM20.4023 22.8295H20.7523V22.6845L20.6498 22.582L20.4023 22.8295ZM24.3276 30.4223V30.0723H23.9776V30.4223H24.3276ZM25.1127 30.4223H25.4627V30.0723H25.1127V30.4223ZM29.038 22.8295L28.7905 22.582L28.688 22.6845V22.8295H29.038ZM33.681 18.1865L33.9285 18.4339L33.681 18.1865ZM21.5373 15.8986C21.5373 14.1408 22.9623 12.7158 24.7201 12.7158V12.0158C22.5757 12.0158 20.8373 13.7542 20.8373 15.8986H21.5373ZM24.7201 12.7158C26.478 12.7158 27.9029 14.1408 27.9029 15.8986H28.6029C28.6029 13.7542 26.8646 12.0158 24.7201 12.0158V12.7158ZM27.9029 15.8986C27.9029 17.6564 26.478 19.0814 24.7201 19.0814V19.7814C26.8646 19.7814 28.6029 18.043 28.6029 15.8986H27.9029ZM24.7201 19.0814C22.9623 19.0814 21.5373 17.6564 21.5373 15.8986H20.8373C20.8373 18.043 22.5757 19.7814 24.7201 19.7814V19.0814ZM33.9285 15.7185C33.1787 14.9686 31.9629 14.9686 31.213 15.7185L31.708 16.2135C32.1845 15.737 32.9571 15.737 33.4335 16.2135L33.9285 15.7185ZM31.2131 15.7185L26.9625 19.969L27.4575 20.464L31.708 16.2135L31.2131 15.7185ZM27.21 19.8665H22.2302V20.5665H27.21V19.8665ZM22.4777 19.969L18.2272 15.7185L17.7322 16.2135L21.9827 20.464L22.4777 19.969ZM18.2272 15.7185C17.4774 14.9686 16.2616 14.9686 15.5118 15.7185L16.0068 16.2135C16.4832 15.737 17.2558 15.737 17.7322 16.2135L18.2272 15.7185ZM15.5118 15.7185C14.7619 16.4684 14.7619 17.6841 15.5118 18.434L16.0068 17.939C15.5303 17.4625 15.5303 16.69 16.0068 16.2135L15.5118 15.7185ZM15.5118 18.434L20.1548 23.077L20.6498 22.582L16.0068 17.939L15.5118 18.434ZM20.0523 22.8295V35.9178H20.7523V22.8295H20.0523ZM20.0523 35.9178C20.0523 36.9782 20.912 37.8379 21.9724 37.8379V37.1379C21.2986 37.1379 20.7523 36.5916 20.7523 35.9178H20.0523ZM21.9724 37.8379H22.7575V37.1379H21.9724V37.8379ZM22.7575 37.8379C23.8179 37.8379 24.6776 36.9782 24.6776 35.9178H23.9776C23.9776 36.5916 23.4313 37.1379 22.7575 37.1379V37.8379ZM24.6776 35.9178V30.4223H23.9776V35.9178H24.6776ZM24.3276 30.7723H25.1127V30.0723H24.3276V30.7723ZM24.7627 30.4223V35.9178H25.4627V30.4223H24.7627ZM24.7627 35.9178C24.7627 36.9782 25.6223 37.8379 26.6828 37.8379V37.1379C26.0089 37.1379 25.4627 36.5916 25.4627 35.9178H24.7627ZM26.6828 37.8379H27.4679V37.1379H26.6828V37.8379ZM27.4679 37.8379C28.5283 37.8379 29.388 36.9782 29.388 35.9178H28.688C28.688 36.5916 28.1417 37.1379 27.4679 37.1379V37.8379ZM29.388 35.9178V22.8295H28.688V35.9178H29.388ZM29.2855 23.077L33.9285 18.4339L33.4335 17.939L28.7905 22.582L29.2855 23.077ZM33.9285 18.4339C34.6784 17.6841 34.6784 16.4684 33.9285 15.7185L33.4335 16.2135C33.91 16.69 33.91 17.4625 33.4335 17.939L33.9285 18.4339Z" fill="white"/>
</svg>
