<svg width="40" height="40" viewBox="0 0 40 40" fill="none" xmlns="http://www.w3.org/2000/svg">
<path fill-rule="evenodd" clip-rule="evenodd" d="M20 3.85416C11.0807 3.85416 3.85419 11.0807 3.85419 20C3.85419 28.9193 11.0807 36.1458 20 36.1458C28.9193 36.1458 36.1459 28.9193 36.1459 20C36.1459 11.0807 28.9193 3.85416 20 3.85416ZM23.7175 26.6471L17.9753 22.474C17.7735 22.3242 17.6563 22.0898 17.6563 21.8424V10.8854C17.6563 10.4557 18.0078 10.1042 18.4375 10.1042H21.5625C21.9922 10.1042 22.3438 10.4557 22.3438 10.8854V19.8503L26.4779 22.8581C26.8295 23.112 26.9011 23.6003 26.6472 23.9518L24.8112 26.4779C24.5573 26.8229 24.069 26.901 23.7175 26.6471Z" fill="black"/>
</svg>
