<svg width="40" height="40" viewBox="0 0 40 40" fill="none" xmlns="http://www.w3.org/2000/svg">
<path fill-rule="evenodd" clip-rule="evenodd" d="M35 26.7708V4.89583C35 4.02994 34.2835 3.33333 33.3929 3.33333H11.4286C7.87946 3.33333 5 6.13281 5 9.58333V30.4167C5 33.8672 7.87946 36.6667 11.4286 36.6667H33.3929C34.2835 36.6667 35 35.97 35 35.1042V34.0625C35 33.5742 34.7656 33.1315 34.404 32.845C34.1228 31.8424 34.1228 28.9844 34.404 27.9818C34.7656 27.7018 35 27.2591 35 26.7708ZM13.5714 12.0573C13.5714 11.8424 13.7522 11.6667 13.9732 11.6667H28.1696C28.3906 11.6667 28.5714 11.8424 28.5714 12.0573V13.3594C28.5714 13.5742 28.3906 13.75 28.1696 13.75H13.9732C13.7522 13.75 13.5714 13.5742 13.5714 13.3594V12.0573ZM13.5714 16.224C13.5714 16.0091 13.7522 15.8333 13.9732 15.8333H28.1696C28.3906 15.8333 28.5714 16.0091 28.5714 16.224V17.526C28.5714 17.7409 28.3906 17.9167 28.1696 17.9167H13.9732C13.7522 17.9167 13.5714 17.7409 13.5714 17.526V16.224ZM30.5402 32.5H11.4286C10.2433 32.5 9.28571 31.569 9.28571 30.4167C9.28571 29.2708 10.25 28.3333 11.4286 28.3333H30.5402C30.4129 29.4466 30.4129 31.3867 30.5402 32.5Z" fill="black"/>
</svg>
