<svg width="40" height="40" viewBox="0 0 40 40" fill="none" xmlns="http://www.w3.org/2000/svg">
<path fill-rule="evenodd" clip-rule="evenodd" d="M36.4754 22.1148L32.2842 29.3895C31.6205 30.5416 30.4023 31.25 29.0851 31.25H5.93899C4.86705 31.25 4.19917 30.0727 4.73928 29.1352L8.93048 21.8605C9.59423 20.7084 10.8124 20 12.1297 20H35.2757C36.3477 20 37.0156 21.1773 36.4754 22.1148ZM12.1297 18.125H31.1112V15.3125C31.1112 13.7592 29.8675 12.5 28.3334 12.5H19.0741L15.3704 8.75H6.11115C4.57701 8.75 3.33337 10.0092 3.33337 11.5625V27.8543L7.33089 20.9157C8.32261 19.1943 10.1614 18.125 12.1297 18.125Z" fill="black"/>
</svg>
