<svg width="34" height="34" viewBox="0 0 34 34" fill="none" xmlns="http://www.w3.org/2000/svg">
<path fill-rule="evenodd" clip-rule="evenodd" d="M17 0.333332C22.753 0.333332 27.4166 4.997 27.4166 10.75C27.4166 16.503 22.753 21.1667 17 21.1667C11.247 21.1667 6.58331 16.503 6.58331 10.75C6.58331 4.997 11.247 0.333332 17 0.333332ZM24.2897 20.9058C19.4119 24.4143 13.4995 23.6313 9.71027 20.9058L5.06749 22.0665C2.2852 22.762 0.333313 25.2619 0.333313 28.1299V30.5417C0.333313 32.2676 1.7324 33.6667 3.45831 33.6667H30.5416C32.2676 33.6667 33.6666 32.2676 33.6666 30.5417V28.1299C33.6666 25.2619 31.7148 22.762 28.9325 22.0665L24.2897 20.9058Z" fill="black"/>
</svg>
