<svg width="29" height="29" viewBox="0 0 29 29" fill="none" xmlns="http://www.w3.org/2000/svg">
<path fill-rule="evenodd" clip-rule="evenodd" d="M14.5 0.372375C6.69562 0.372375 0.372375 6.69562 0.372375 14.5C0.372375 22.3043 6.69562 28.6276 14.5 28.6276C22.3043 28.6276 28.6276 22.3043 28.6276 14.5C28.6276 6.69562 22.3043 0.372375 14.5 0.372375ZM22.7031 16.095C22.7031 16.471 22.3955 16.7786 22.0195 16.7786H16.7786V22.0195C16.7786 22.3955 16.471 22.7031 16.095 22.7031H12.9049C12.529 22.7031 12.2213 22.3955 12.2213 22.0195V16.7786H6.98045C6.60447 16.7786 6.29685 16.471 6.29685 16.095V12.9049C6.29685 12.529 6.60447 12.2213 6.98045 12.2213H12.2213V6.98045C12.2213 6.60447 12.529 6.29685 12.9049 6.29685H16.095C16.471 6.29685 16.7786 6.60447 16.7786 6.98045V12.2213H22.0195C22.3955 12.2213 22.7031 12.529 22.7031 12.9049V16.095Z" fill="#6C757D"/>
</svg>
