<svg width="40" height="40" viewBox="0 0 40 40" fill="none" xmlns="http://www.w3.org/2000/svg">
<path d="M3.33331 19.2708V32.5521C3.33331 32.9837 3.70623 33.3333 4.16665 33.3333H8.33331V17.7083H4.99998C4.07967 17.7083 3.33331 18.4081 3.33331 19.2708ZM22.0833 16.9271H20.8333V14.974C20.8333 14.7582 20.6469 14.5833 20.4166 14.5833H19.5833C19.3531 14.5833 19.1666 14.7582 19.1666 14.974V18.099C19.1666 18.3148 19.3531 18.4896 19.5833 18.4896H22.0833C22.3135 18.4896 22.5 18.3148 22.5 18.099V17.3177C22.5 17.1019 22.3135 16.9271 22.0833 16.9271ZM29.2578 13.804L20.9245 8.59555C20.6506 8.42457 20.329 8.33334 20 8.33334C19.671 8.33334 19.3493 8.42457 19.0755 8.59555L10.7422 13.804C10.5139 13.9467 10.3267 14.14 10.1973 14.3667C10.0678 14.5935 10 14.8467 9.99998 15.1039V33.3333H16.6666V26.3021C16.6666 25.8705 17.0396 25.5208 17.5 25.5208H22.5C22.9604 25.5208 23.3333 25.8705 23.3333 26.3021V33.3333H30V15.1043C30 14.5819 29.7213 14.0936 29.2578 13.804ZM20 20.8333C17.6989 20.8333 15.8333 19.0843 15.8333 16.9271C15.8333 14.7699 17.6989 13.0208 20 13.0208C22.301 13.0208 24.1666 14.7699 24.1666 16.9271C24.1666 19.0843 22.301 20.8333 20 20.8333ZM35 17.7083H31.6666V33.3333H35.8333C36.2937 33.3333 36.6666 32.9837 36.6666 32.5521V19.2708C36.6666 18.4081 35.9203 17.7083 35 17.7083Z" fill="black"/>
</svg>
