<svg width="32" height="30" viewBox="0 0 32 30" fill="none" xmlns="http://www.w3.org/2000/svg">
<path fill-rule="evenodd" clip-rule="evenodd" d="M31.625 6.6667V7.70837C31.625 7.99602 31.3918 8.2292 31.1042 8.2292H29.5417V9.01045C29.5417 9.4419 29.1919 9.7917 28.7604 9.7917H3.23958C2.80814 9.7917 2.45833 9.4419 2.45833 9.01045V8.2292H0.895833C0.608185 8.2292 0.375 7.99602 0.375 7.70837V6.6667C0.375002 6.45599 0.501973 6.26603 0.69668 6.18545L15.8008 0.456288C15.9284 0.403487 16.0716 0.403487 16.1992 0.456288L31.3033 6.18545C31.498 6.26603 31.625 6.45599 31.625 6.6667ZM30.0625 26.4584H1.9375C1.07454 26.4584 0.375 27.1579 0.375 28.0209V29.0625C0.375 29.3502 0.608185 29.5834 0.895833 29.5834H31.1042C31.3918 29.5834 31.625 29.3502 31.625 29.0625V28.0209C31.625 27.1579 30.9255 26.4584 30.0625 26.4584ZM5.58333 10.8334V23.3334H3.23958C2.80814 23.3334 2.45833 23.6832 2.45833 24.1146V25.4167H29.5417V24.1146C29.5417 23.6832 29.1919 23.3334 28.7604 23.3334H26.4167V10.8334H22.25V23.3334H18.0833V10.8334H13.9167V23.3334H9.75V10.8334H5.58333Z" fill="black"/>
</svg>
