<svg width="40" height="40" viewBox="0 0 40 40" fill="none" xmlns="http://www.w3.org/2000/svg">
<path fill-rule="evenodd" clip-rule="evenodd" d="M20 10C23.0203 10 25.4687 12.4484 25.4687 15.4688C25.4687 18.4891 23.0203 20.9375 20 20.9375C16.9797 20.9375 14.5312 18.4891 14.5312 15.4688C14.5312 12.4484 16.9797 10 20 10ZM25.9095 21.3211L23.8271 20.8005C21.2663 22.6424 18.1622 22.2314 16.1729 20.8005L14.0905 21.3211C12.4211 21.7385 11.25 23.2384 11.25 24.9592V28.125C11.25 29.1605 12.0895 30 13.125 30H26.875C27.9105 30 28.75 29.1605 28.75 28.125V24.9592C28.75 23.2384 27.5789 21.7385 25.9095 21.3211ZM30.8333 22.2917C32.8469 22.2917 34.4791 20.6594 34.4791 18.6458C34.4791 16.6323 32.8469 15 30.8333 15C28.8198 15 27.1875 16.6323 27.1875 18.6458C27.1875 20.6594 28.8198 22.2917 30.8333 22.2917ZM9.16665 22.2917C11.1802 22.2917 12.8125 20.6594 12.8125 18.6458C12.8125 16.6323 11.1802 15 9.16665 15C7.1531 15 5.52081 16.6323 5.52081 18.6458C5.52081 20.6594 7.1531 22.2917 9.16665 22.2917ZM10.4166 24.9592C10.4166 24.0971 10.6559 23.2819 11.0783 22.5842C9.51639 23.3509 7.77951 23.0378 6.61524 22.2004L5.22696 22.5474C4.11404 22.8256 3.33331 23.8256 3.33331 24.9728V27.0833C3.33331 27.7737 3.89295 28.3333 4.58331 28.3333H10.4254C10.4199 28.264 10.4169 28.1945 10.4166 28.125V24.9592ZM34.773 22.5474L33.3847 22.2003C31.9303 23.2465 30.2134 23.202 28.9167 22.5763C29.3421 23.2757 29.5833 24.0938 29.5833 24.9592V28.125C29.5833 28.1952 29.5798 28.2645 29.5745 28.3333H35.4166C36.107 28.3333 36.6666 27.7737 36.6666 27.0833V24.9728C36.6666 23.8256 35.8859 22.8256 34.773 22.5474Z" fill="black"/>
</svg>
