<svg width="40" height="40" viewBox="0 0 40 40" fill="none" xmlns="http://www.w3.org/2000/svg">
<path fill-rule="evenodd" clip-rule="evenodd" d="M31.0377 22.5602L32.442 18.976C32.6424 18.4647 32.2539 17.9167 31.6911 17.9167H27.794C28.2929 16.8596 28.5714 15.6838 28.5714 14.4445C28.5714 14.2081 28.5607 13.9741 28.5409 13.7428C31.1886 13.234 32.8571 12.4924 32.8571 11.6667C32.8571 10.8032 31.0336 10.0318 28.1732 9.52232C27.5581 7.38658 26.3532 5.23866 25.4468 4.12844C24.8139 3.35318 23.7142 3.1106 22.8037 3.55331L20.9583 4.45038C20.3551 4.74368 19.6449 4.74368 19.0417 4.45038L17.1963 3.55325C16.2857 3.1106 15.1861 3.35312 14.5532 4.12838C13.6468 5.2386 12.4419 7.38652 11.8268 9.52226C8.96636 10.0318 7.14286 10.8032 7.14286 11.6667C7.14286 12.4924 8.81141 13.234 11.4591 13.7428C11.4389 13.9761 11.4287 14.2103 11.4286 14.4445C11.4286 15.6838 11.7071 16.8597 12.2059 17.9167H8.36147C7.78458 17.9167 7.39565 18.4901 7.62292 19.0057L9.15681 22.4853C6.72761 23.3777 5 25.6592 5 28.3333V33.5417C5 35.2676 6.43906 36.6667 8.21429 36.6667H31.7857C33.5609 36.6667 35 35.2676 35 33.5417V28.3333C35 25.7311 33.3641 23.5006 31.0377 22.5602ZM17.3214 35.1042L14.1071 22.6042L17.3214 24.1667L18.9286 26.7708L17.3214 35.1042ZM22.6786 35.1042L21.0714 26.7708L22.6786 24.1667L25.8929 22.6042L22.6786 35.1042ZM26.0035 15.7047C25.745 16.4771 25.5331 17.3045 24.8977 17.8766C24.2233 18.4838 21.6863 19.3352 20.6123 16.2471C20.4223 15.7005 19.5779 15.7003 19.3878 16.2471C18.2519 19.5132 15.6365 18.3575 15.1024 17.8766C14.467 17.3045 14.2551 16.4771 13.9965 15.7047C13.9412 15.5394 13.6538 15.3318 13.6533 15.329C13.6162 15.1386 13.5876 14.946 13.5716 14.7529C13.5509 14.5023 14.2465 14.5147 14.3135 14.5089C16.0748 14.3575 17.8159 14.4712 19.5382 14.8668C19.7098 14.9062 20.3119 14.9012 20.4619 14.8668C22.1842 14.4712 23.9252 14.3574 25.6866 14.5089C25.7537 14.5147 26.4491 14.5023 26.4284 14.7529C26.4124 14.946 26.3838 15.1386 26.3467 15.329C26.3462 15.3318 26.0589 15.5394 26.0035 15.7047Z" fill="black"/>
</svg>
